<?xml version="1.0" standalone="no"?>
<!DOCTYPE svg PUBLIC "-//W3C//DTD SVG 20010904//EN"
 "http://www.w3.org/TR/2001/REC-SVG-20010904/DTD/svg10.dtd">
<svg version="1.0" xmlns="http://www.w3.org/2000/svg"
 width="512.000000pt" height="512.000000pt" viewBox="0 0 512.000000 512.000000"
 preserveAspectRatio="xMidYMid meet">
<metadata>
Created by potrace 1.14, written by Peter Selinger 2001-2017
</metadata>
<g transform="translate(0.000000,512.000000) scale(0.100000,-0.100000)"
fill="#000000" stroke="none">
<path d="M427 4469 c-96 -23 -190 -101 -235 -196 l-27 -58 0 -1655 0 -1655 27
-58 c34 -72 104 -141 177 -176 l56 -26 2135 0 2135 0 67 33 c76 37 128 90 167
172 l26 55 0 1655 0 1655 -26 55 c-39 80 -88 131 -165 171 l-68 34 -2115 2
c-1213 0 -2132 -3 -2154 -8z m2862 -693 c202 -102 153 -96 793 -96 l558 0 0
-1354 c0 -1225 -2 -1354 -16 -1360 -9 -3 -939 -6 -2068 -6 -1583 0 -2055 3
-2064 12 -9 9 -12 343 -12 1440 l0 1428 1341 0 1341 0 127 -64z"/>
<path d="M1375 2866 c-61 -27 -101 -98 -91 -163 3 -21 5 -42 6 -47 0 -5 37
-46 82 -92 l82 -84 -81 -82 c-85 -88 -99 -117 -89 -185 12 -72 69 -125 142
-129 67 -4 90 8 176 94 l78 76 75 -74 c41 -41 89 -81 107 -88 64 -27 166 9
199 69 17 33 21 104 7 138 -7 17 -46 65 -87 106 l-75 75 82 84 c45 46 83 90
83 97 1 8 3 30 5 49 12 105 -89 188 -198 165 -22 -5 -60 -34 -116 -88 l-82
-81 -75 75 c-95 95 -156 118 -230 85z"/>
<path d="M3135 2866 c-61 -27 -101 -98 -91 -163 3 -21 5 -42 6 -47 0 -5 37
-46 82 -92 l82 -84 -81 -82 c-54 -56 -83 -94 -88 -116 -20 -91 40 -184 127
-197 70 -11 105 6 191 92 l77 77 84 -82 c46 -45 87 -82 92 -82 5 -1 26 -3 47
-6 69 -10 146 37 168 103 6 20 8 54 4 81 -6 41 -17 56 -87 129 l-81 83 74 75
c86 88 103 121 95 184 -10 79 -67 134 -143 137 -68 3 -89 -9 -175 -94 l-78
-77 -78 78 c-96 95 -152 116 -227 83z"/>
<path d="M1855 1746 c-63 -29 -102 -100 -91 -168 12 -73 44 -102 197 -178 170
-85 217 -99 303 -95 55 3 85 13 182 59 l116 55 101 -49 c146 -71 230 -83 333
-47 21 8 98 44 171 80 162 81 188 110 188 198 -1 97 -59 154 -153 153 -50 0
-74 -9 -189 -67 l-131 -67 -104 50 c-186 90 -260 89 -450 -7 l-88 -44 -137 68
c-146 73 -193 84 -248 59z"/>
</g>
</svg>
